<?xml version="1.0" encoding="UTF-8" standalone="no"?>
<!-- Created with Inkscape (http://www.inkscape.org/) -->
<svg id="svg17077" xmlns:rdf="http://www.w3.org/1999/02/22-rdf-syntax-ns#" xmlns="http://www.w3.org/2000/svg" height="52.202mm" width="51.021mm" version="1.1" xmlns:cc="http://creativecommons.org/ns#" xmlns:dc="http://purl.org/dc/elements/1.1/" viewBox="0 0 180.78408 184.96859">
 <metadata id="metadata17082">
  <rdf:RDF>
   <cc:Work rdf:about="">
    <dc:format>image/svg+xml</dc:format>
    <dc:type rdf:resource="http://purl.org/dc/dcmitype/StillImage"/>
    <dc:title/>
   </cc:Work>
  </rdf:RDF>
 </metadata>
 <g id="layer1" transform="translate(-24.802 -556.14)">
  <g id="g17048" fill-rule="evenodd" transform="matrix(.42387 .43756 -.46431 .44978 889.49 1187)">
   <g id="g17041">
    <path id="path17027" d="m-1527.7 280.67a80.524 71.577 0 0 1 -80.524 71.577 80.524 71.577 0 0 1 -80.524 -71.577 80.524 71.577 0 0 1 80.524 -71.577 80.524 71.577 0 0 1 80.524 71.577z" fill="#008080"/>
    <path id="rect17029" d="m-1529.8 252.71h183.06c13.73 0 24.784 10.417 24.784 23.356v9.208c0 12.939-11.054 23.356-24.784 23.356h-183.06c-13.73 0-24.784-10.417-24.784-23.356v-9.208c0-12.939 11.054-23.356 24.784-23.356z" fill="#008080"/>
    <path id="rect17031" d="m-1694.3 245.75h86.116v69.836h-86.116z" fill="#fff"/>
   </g>
   <path id="path17046" d="m-1341.5 280.67a12.5 12.5 0 0 1 -12.5 12.5 12.5 12.5 0 0 1 -12.5 -12.5 12.5 12.5 0 0 1 12.5 -12.5 12.5 12.5 0 0 1 12.5 12.5z" fill="#fff"/>
  </g>
 </g>
</svg>
